# xmcd CD database file
#
# Track frame offsets:
#	150
#	17722
#	35028
#	56541
#	78050
#
# Disc length: 1182 seconds
#
# Revision: 0
# Processed by: cddbd v1.5.1PL0 Copyright (c) Steve Scherf et al.
# Submitted via: CDex 1.51
#
DISCID=32049c05
DTITLE=Betty! - rena and neko Betty! ver.1.0
DYEAR=2005
DGENRE=Vocal
TTITLE0=Tender Breeze
TTITLE1=NAIVE (complete version)
TTITLE2=Jump
TTITLE3=OUT
TTITLE4=か・け・ひ・き fifty-fifty (short version)
EXTD=YEAR: 2005
EXTT0=
EXTT1=
EXTT2=
EXTT3=
EXTT4=
PLAYORDER=
